<svg width="39" height="39" xmlns="http://www.w3.org/2000/svg">
 <style type="text/css">.st0{fill:#00E676;}
        .icon_logo_white{fill:#FFFFFF;}</style>

 <g>
  <title>background</title>
  <rect fill="none" id="canvas_background" height="41" width="41" y="-1" x="-1"/>
 </g>
 <g>
  <title>Layer 1</title>
  <path id="svg_1" d="m10.7,32.8l0.6,0.3c2.5,1.5 5.3,2.2 8.1,2.2l0,0c8.8,0 16,-7.2 16,-16c0,-4.2 -1.7,-8.3 -4.7,-11.3c-3,-3 -7,-4.7 -11.3,-4.7c-8.8,0 -16,7.2 -15.9,16.1c0,3 0.9,5.9 2.4,8.4l0.4,0.6l-1.6,5.9l6,-1.5z" class="st0"/>
  <path id="svg_2" d="m32.4,6.4c-3.4,-3.5 -8.1,-5.4 -12.9,-5.4c-10.2,0 -18.4,8.3 -18.3,18.4c0,3.2 0.9,6.3 2.4,9.1l-2.6,9.5l9.7,-2.5c2.7,1.5 5.7,2.2 8.7,2.2l0,0c10.1,0 18.3,-8.3 18.3,-18.4c0,-4.9 -1.9,-9.5 -5.3,-12.9zm-12.9,28.2l0,0c-2.7,0 -5.4,-0.7 -7.7,-2.1l-0.6,-0.3l-5.8,1.5l1.5,-5.7l-0.4,-0.6c-4.4,-7.1 -2.3,-16.5 4.9,-20.9s16.5,-2.3 20.9,4.9s2.3,16.5 -4.9,20.9c-2.3,1.5 -5.1,2.3 -7.9,2.3zm8.8,-11.1l-1.1,-0.5c0,0 -1.6,-0.7 -2.6,-1.2c-0.1,0 -0.2,-0.1 -0.3,-0.1c-0.3,0 -0.5,0.1 -0.7,0.2l0,0c0,0 -0.1,0.1 -1.5,1.7c-0.1,0.2 -0.3,0.3 -0.5,0.3l-0.1,0c-0.1,0 -0.3,-0.1 -0.4,-0.2l-0.5,-0.2l0,0c-1.1,-0.5 -2.1,-1.1 -2.9,-1.9c-0.2,-0.2 -0.5,-0.4 -0.7,-0.6c-0.7,-0.7 -1.4,-1.5 -1.9,-2.4l-0.1,-0.2c-0.1,-0.1 -0.1,-0.2 -0.2,-0.4c0,-0.2 0,-0.4 0.1,-0.5c0,0 0.4,-0.5 0.7,-0.8c0.2,-0.2 0.3,-0.5 0.5,-0.7c0.2,-0.3 0.3,-0.7 0.2,-1c-0.1,-0.5 -1.3,-3.2 -1.6,-3.8c-0.2,-0.3 -0.4,-0.4 -0.7,-0.5l-0.3,0c-0.2,0 -0.5,0 -0.8,0c-0.2,0 -0.4,0.1 -0.6,0.1l-0.1,0.1c-0.2,0.1 -0.4,0.3 -0.6,0.4c-0.2,0.2 -0.3,0.4 -0.5,0.6c-0.7,0.9 -1.1,2 -1.1,3.1l0,0c0,0.8 0.2,1.6 0.5,2.3l0.1,0.3c0.9,1.9 2.1,3.6 3.7,5.1l0.4,0.4c0.3,0.3 0.6,0.5 0.8,0.8c2.1,1.8 4.5,3.1 7.2,3.8c0.3,0.1 0.7,0.1 1,0.2l0,0c0.3,0 0.7,0 1,0c0.5,0 1.1,-0.2 1.5,-0.4c0.3,-0.2 0.5,-0.2 0.7,-0.4l0.2,-0.2c0.2,-0.2 0.4,-0.3 0.6,-0.5c0.2,-0.2 0.4,-0.4 0.5,-0.6c0.2,-0.4 0.3,-0.9 0.4,-1.4c0,-0.2 0,-0.5 0,-0.7c0,0 -0.1,-0.1 -0.3,-0.2z" class="icon_logo_white"/>
  <rect opacity="0" id="svg_4" height="40" width="40" y="-0.424116" x="0.749998" stroke-width="1.5" stroke="#000" fill="#fff"/>
 </g>
</svg>